<?xml version="1.0" encoding="UTF-8"?>
<svg id="Calque_1" data-name="Calque 1" xmlns="http://www.w3.org/2000/svg" xmlns:xlink="http://www.w3.org/1999/xlink" viewBox="0 0 1964.57626 456.95713">
  <defs>
    <style>
      .cls-1 {
        fill: #fff;
      }

      .cls-2 {
        fill: #d33737;
      }

      .cls-3 {
        clip-path: url(#clippath);
      }

      .cls-4 {
        fill: none;
      }
    </style>
    <clipPath id="clippath">
      <rect class="cls-4" y=".13139" width="1964.50992" height="456.82418"/>
    </clipPath>
  </defs>
  <g class="cls-3">
    <g id="Groupe_1" data-name="Groupe 1">
      <path id="Tracé_1" data-name="Tracé 1" class="cls-1" d="M0,446.94513V10.04748H210.30599c36.28955-.84896,72.34877,5.98181,105.81356,20.04449,28.04654,11.91146,52.00655,31.75014,68.94081,57.08238,16.64106,26.15373,25.12667,56.66631,24.37737,87.65633,.80903,30.82242-7.68581,61.17373-24.37737,87.09801-16.99291,24.98242-40.97223,44.40221-68.94078,55.83205-33.57536,13.62193-69.59051,20.20348-105.81359,19.33679H81.74285l65.54368-60.55027v170.39786H0Zm147.27868-154.12792l-65.54369-66.78615h119.20537c20.39311,.00001,35.47562-4.57141,45.24756-13.71424,10.05316-9.80134,15.39953-23.45665,14.67362-37.47824,.71121-13.99606-4.63465-27.62137-14.67362-37.39963-9.77717-9.14282-24.85968-13.71424-45.24756-13.71424H81.74285L147.28654,56.93855l-.00786,235.87865Zm114.19621,154.12792l-107.34695-159.11351h156.01523l108.58941,159.11351h-157.25768Z"/>
      <path id="Tracé_2" data-name="Tracé 2" class="cls-1" d="M609.69393,335.87865h218.42917v111.06648H464.92379V10.04748h355.09973V121.20832h-210.3296v214.67033Zm-9.97898-163.56433h194.71229v106.12022h-194.72015l.00786-106.12022Z"/>
      <path id="Tracé_3" data-name="Tracé 3" class="cls-1" d="M884.89885,446.95299V10.04748h215.30733c44.2971-.90462,88.22955,8.1743,128.5395,26.56348,35.46571,16.30763,65.55382,42.37802,86.74419,75.16096,21.46371,34.84492,32.30937,75.1889,31.21086,116.09922,1.12239,41.20034-9.71848,81.84317-31.21086,117.01142-21.11657,32.9275-51.21669,59.12289-86.74419,75.49125-40.31283,18.37555-84.24588,27.43843-128.53962,26.51631l-215.30721,.06287Zm147.27871-114.80957h61.78481c18.87204,.42758,37.57765-3.61425,54.58961-11.79551,15.4684-7.79477,28.20367-20.10503,36.51886-35.3,9.20732-17.58269,13.71991-37.24447,13.10088-57.08237,.60055-19.54494-3.91552-38.90768-13.10088-56.17019-8.38827-15.04907-21.11358-27.22364-36.51886-34.93828-16.99564-8.23774-35.70749-12.31328-54.58961-11.88986h-61.78481v207.17621Z"/>
      <path id="Tracé_4" data-name="Tracé 4" class="cls-1" d="M1563.25828,456.95557c-35.74001,.0947-71.36146-4.11113-106.09667-12.52681-29.5502-6.54699-57.95209-17.4863-84.2592-32.45336l47.43376-107.36269c21.89939,12.52819,45.27106,22.28582,69.57769,29.0484,24.2344,7.07489,49.33368,10.75084,74.57912,10.92264,11.20011,.26431,22.39543-.69018,33.38916-2.84664,6.53394-1.104,12.66879-3.88693,17.80341-8.07599,3.61146-3.26754,5.65201-7.92418,5.6069-12.79418-.2383-8.30034-5.38707-15.66504-13.10076-18.73912-10.97861-5.3416-22.61165-9.21749-34.6001-11.52814-14.36689-3.14548-30.0628-6.44821-47.12707-10.01044-17.43216-3.60036-34.62386-8.28043-51.47551-14.01307-16.76165-5.57723-32.71146-13.34851-47.43376-23.11132-14.39425-9.62422-26.26151-22.57042-34.6001-37.74561-9.28915-18.00729-13.79766-38.09864-13.09308-58.34843-.18718-26.3993,7.77656-52.21323,22.8046-73.9185,17.1665-23.8735,40.75703-42.38375,68.02862-53.37859,35.73665-14.33363,74.05092-21.1232,112.53678-19.94231,29.36733-.02628,58.65211,3.10573,87.34966,9.34204,27.08512,5.65883,53.17337,15.33031,77.402,28.69453l-44.31186,106.74931c-20.0393-10.20235-41.05149-18.36901-62.72074-24.37738-19.22217-5.25563-39.05005-7.97072-58.97753-8.07599-11.34986-.33725-22.69132,.91203-33.69586,3.71165-6.7468,1.5967-12.90637,5.06356-17.77197,10.00258-3.38612,3.76949-5.27692,8.64728-5.3158,13.71424,.36645,8.04262,5.53466,15.07536,13.10076,17.82694,11.02661,5.08338,22.65245,8.75079,34.6001,10.91478,14.34841,2.89383,30.15975,6.00783,47.43376,9.34204,17.44872,3.40244,34.64666,7.98437,51.47551,13.71424,16.64166,5.64081,32.48444,13.40894,47.13474,23.11132,14.33594,9.55962,26.19504,22.38905,34.6001,37.43109,9.27835,17.67238,13.79358,37.45682,13.10076,57.40479,.12215,26.19456-7.84159,51.78868-22.8046,73.2894-17.1281,23.85811-40.58497,42.45294-67.72192,53.68527-29.93969,13.5098-67.58825,20.28039-112.94595,20.31186"/>
      <path id="Tracé_5" data-name="Tracé 5" class="cls-2" d="M1882.13805,453.19673c-21.83196,.59347-42.98357-7.62579-58.68667-22.80466-15.80773-15.21372-24.4163-36.42113-23.68532-58.34842-.92992-21.86108,7.71896-43.04095,23.68532-58.00243,33.6949-29.11748,83.64677-29.11748,117.34166,0,15.9762,14.957,24.63636,36.13681,23.71676,58.00243,.7209,21.93173-7.89919,43.13907-23.71676,58.34842-15.69326,15.17407-36.8336,23.39321-58.65523,22.80466"/>
    </g>
  </g>
</svg>